<?xml version="1.0" encoding="UTF-8" standalone="no"?>
<!-- Generator: Adobe Illustrator 19.0.0, SVG Export Plug-In . SVG Version: 6.00 Build 0)  -->

<!-- License: CC0. Made by SVG Repo: https://www.svgrepo.com/svg/120949/moon -->

<svg
   version="1.1"
   id="Layer_1"
   x="0px"
   y="0px"
   viewBox="0 0 280.036 280.036"
   style="enable-background:new 0 0 280.036 280.036;"
   xml:space="preserve"
   sodipodi:docname="moon.svg"
   inkscape:version="1.4.3 (0d15f75, 2025-12-25)"
   xmlns:inkscape="http://www.inkscape.org/namespaces/inkscape"
   xmlns:sodipodi="http://sodipodi.sourceforge.net/DTD/sodipodi-0.dtd"
   xmlns="http://www.w3.org/2000/svg"
   xmlns:svg="http://www.w3.org/2000/svg"><defs
   id="defs6" /><sodipodi:namedview
   id="namedview6"
   pagecolor="#ffffff"
   bordercolor="#999999"
   borderopacity="1"
   inkscape:showpageshadow="0"
   inkscape:pageopacity="0"
   inkscape:pagecheckerboard="0"
   inkscape:deskcolor="#d1d1d1"
   inkscape:zoom="2.0377207"
   inkscape:cx="51.528161"
   inkscape:cy="133.2371"
   inkscape:window-width="2560"
   inkscape:window-height="1009"
   inkscape:window-x="-8"
   inkscape:window-y="-8"
   inkscape:window-maximized="1"
   inkscape:current-layer="Layer_1" />
<g
   id="g6">
	<path
   style="fill:#cccccc"
   d="M140.018,0c77.331,0,140.014,62.691,140.014,140.014c0,77.331-62.682,140.022-140.014,140.022   c-77.323,0-140.014-62.691-140.014-140.022C0.004,62.691,62.695,0,140.018,0z"
   id="path1" />
	<g
   id="g2">
		<path
   style="fill:#C89147;"
   d="M116.303,116.071c-8.208,5.732-18.736,8.068-29.175,5.286    c-18.744-5.005-29.867-24.205-24.844-42.879c1.076-3.982,2.905-7.526,5.128-10.729c-6.537,4.55-11.647,11.201-13.87,19.479    c-5.023,18.674,6.099,37.874,24.844,42.879C93.14,134.037,108.104,127.92,116.303,116.071z M227.527,105.019    c-24.17,0-43.754-19.593-43.754-43.754c0-9.845,3.369-18.832,8.865-26.148c-10.641,7.981-17.615,20.582-17.615,34.898    c0,24.17,19.584,43.754,43.754,43.754c14.325,0,26.909-6.974,34.89-17.607C246.367,101.65,237.371,105.019,227.527,105.019z     M100.455,209.487c-9.328-2.503-14.868-12.094-12.374-21.44l0.98-2.59c-4.612,2.083-8.322,6.064-9.731,11.341    c-2.494,9.346,3.045,18.937,12.374,21.44c8.418,2.258,17.003-2.056,20.451-9.775C108.602,210.073,104.525,210.581,100.455,209.487    z M185.689,200.342c-14.01-3.763-22.323-18.149-18.561-32.168c0.674-2.538,1.803-4.804,3.115-6.931    c-5.644,3.387-10.037,8.838-11.866,15.682c-3.763,14.019,4.559,28.405,18.561,32.168c11.464,3.072,23.094-2.021,29.018-11.63    C200.075,200.99,192.847,202.25,185.689,200.342z"
   id="path2" />
	</g>
	<path
   style="fill:#999999"
   d="M157.52,262.534c-77.323,0-140.014-62.691-140.014-140.022c0-34.207,12.304-65.518,32.676-89.836   C19.528,58.359,0.004,96.889,0.004,140.014c0,77.331,62.691,140.022,140.014,140.022c43.124,0,81.645-19.514,107.338-50.169   C223.037,250.239,191.736,262.534,157.52,262.534z"
   id="path3" />
	<g
   id="g5"
   style="fill:#999999">
		<path
   style="fill:#999999"
   d="M262.337,71.958c-10.02-17.957-23.899-33.411-40.481-45.391l-3.08-0.315    c-24.17,0-43.754,19.593-43.754,43.754c0,24.17,19.584,43.754,43.754,43.754C242.281,113.77,261.296,95.201,262.337,71.958z"
   id="path4" />
		<path
   id="circle4"
   d="m 209.99,183.724 a 26.261,26.261 0 0 1 -26.261,26.261 26.261,26.261 0 0 1 -26.261,-26.261 26.261,26.261 0 0 1 26.261,-26.261 26.261,26.261 0 0 1 26.261,26.261 z" />
		<path
   style="fill:#999999"
   d="M96.579,62.472c-18.753-5.005-38.014,6.073-43.037,24.756    c-5.023,18.674,6.099,37.874,24.844,42.879c18.753,4.997,38.022-6.082,43.045-24.756C126.454,86.677,115.323,67.478,96.579,62.472    z"
   id="path5" />
		<path
   id="circle5"
   d="m 113.74,201.33099 a 17.502001,17.502001 0 0 1 -17.502001,17.502 17.502001,17.502001 0 0 1 -17.502001,-17.502 17.502001,17.502001 0 0 1 17.502001,-17.502 17.502001,17.502001 0 0 1 17.502001,17.502 z" />
	</g>
</g>
</svg>
